name analog
datacolumns 19
datarows 64
range 0.329 0.3605
endheader
time	ground_force_vx	ground_force_vy	ground_force_vz	ground_force_px	ground_force_py	ground_force_pz	l_ground_force_vx	l_ground_force_vy	l_ground_force_vz	l_ground_force_px	l_ground_force_py	l_ground_force_pz	ground_torque_x	ground_torque_y	ground_torque_z	l_ground_torque_x	l_ground_torque_y	l_ground_torque_z
0.329	-0.0	-0.0	-0.0	-0.0	-0.0	-0.0	-3.9956188201904297	-6.436503410339356	-769.4130249023438	-0.0	-0.0	-0.0	-0.0	-0.0	-0.0	211225.578125	5789.330078125	-2398.549560546875
0.3295	-0.0	-0.0	-0.0	-0.0	-0.0	-0.0	-4.3595123291015625	-6.6101484298706055	-770.5277099609375	-0.0	-0.0	-0.0	-0.0	-0.0	-0.0	211557.734375	6213.80908203125	-2661.98681640625
0.33	-0.0	-0.0	-0.0	-0.0	-0.0	-0.0	-5.010888576507568	-6.3520121574401855	-768.0487670898438	-0.0	-0.0	-0.0	-0.0	-0.0	-0.0	211904.328125	6675.3994140625	-3268.2216796875
0.3305	-0.0	-0.0	-0.0	-0.0	-0.0	-0.0	-6.218740463256836	-5.409703254699707	-767.1292114257812	-0.0	-0.0	-0.0	-0.0	-0.0	-0.0	212135.875	7405.18994140625	-3629.237060546875
0.331	-0.0	-0.0	-0.0	-0.0	-0.0	-0.0	-7.134120941162109	-5.014743328094482	-766.7786865234375	-0.0	-0.0	-0.0	-0.0	-0.0	-0.0	212275.53125	7798.9482421875	-4014.533203125
0.3315	-0.0	-0.0	-0.0	-0.0	-0.0	-0.0	-7.247955799102783	-5.067487716674805	-765.570068359375	-0.0	-0.0	-0.0	-0.0	-0.0	-0.0	212641.171875	8294.0478515625	-4358.251953125
0.332	-0.0	-0.0	-0.0	-0.0	-0.0	-0.0	-7.554303169250488	-5.285475730895996	-764.9638671875	-0.0	-0.0	-0.0	-0.0	-0.0	-0.0	213228.96875	9200.48046875	-4848.91845703125
0.3325	-0.0	-0.0	-0.0	-0.0	-0.0	-0.0	-8.45813274383545	-5.183779716491699	-766.4744873046875	-0.0	-0.0	-0.0	-0.0	-0.0	-0.0	213889.671875	9639.8447265625	-5369.15380859375
0.333	-0.0	-0.0	-0.0	-0.0	-0.0	-0.0	-8.942745208740234	-4.191803455352783	-765.0709228515625	-0.0	-0.0	-0.0	-0.0	-0.0	-0.0	214699.46875	10061.2197265625	-5918.5927734375
0.3335	-0.0	-0.0	-0.0	-0.0	-0.0	-0.0	-8.79250431060791	-2.563380241394043	-768.3623046875	-0.0	-0.0	-0.0	-0.0	-0.0	-0.0	216250.71875	10233.919921875	-6263.69384765625
0.334	-0.0	-0.0	-0.0	-0.0	-0.0	-0.0	-8.420819282531738	-0.4898750185966491	-769.8001098632812	-0.0	-0.0	-0.0	-0.0	-0.0	-0.0	217074.75	10200.89453125	-6504.7802734375
0.3345	-0.0	-0.0	-0.0	-0.0	-0.0	-0.0	-7.738956928253174	1.7316339015960691	-771.6185302734375	-0.0	-0.0	-0.0	-0.0	-0.0	-0.0	218740.328125	10219.802734375	-6773.8564453125
0.335	-0.0	-0.0	-0.0	-0.0	-0.0	-0.0	-6.572731018066406	3.420070171356201	-772.8341064453125	-0.0	-0.0	-0.0	-0.0	-0.0	-0.0	219966.609375	10214.44140625	-6743.560546875
0.3355	-0.0	-0.0	-0.0	-0.0	-0.0	-0.0	-5.569148063659668	5.023021697998047	-774.0499267578125	-0.0	-0.0	-0.0	-0.0	-0.0	-0.0	221140.359375	10116.2841796875	-6580.5361328125
0.336	-0.0	-0.0	-0.0	-0.0	-0.0	-0.0	-4.379172801971436	6.807210445404053	-774.7674560546875	-0.0	-0.0	-0.0	-0.0	-0.0	-0.0	222567.125	10026.919921875	-6673.63134765625
0.3365	-0.0	-0.0	-0.0	-0.0	-0.0	-0.0	-4.117034435272217	8.53264045715332	-776.681396484375	-0.0	-0.0	-0.0	-0.0	-0.0	-0.0	223146.453125	9977.3525390625	-6539.0517578125
0.337	-0.0	-0.0	-0.0	-0.0	-0.0	-0.0	-3.957108736038208	9.166548728942873	-775.466064453125	-0.0	-0.0	-0.0	-0.0	-0.0	-0.0	223394.6875	10152.080078125	-6365.5341796875
0.3375	-0.0	-0.0	-0.0	-0.0	-0.0	-0.0	-3.697378158569336	9.322639465332031	-774.4931640625	-0.0	-0.0	-0.0	-0.0	-0.0	-0.0	223280.625	10347.9599609375	-6409.80029296875
0.338	-0.0	-0.0	-0.0	-0.0	-0.0	-0.0	-3.878340482711792	9.29239559173584	-774.0445556640625	-0.0	-0.0	-0.0	-0.0	-0.0	-0.0	223231.375	10449.064453125	-6229.8466796875
0.3385	-0.0	-0.0	-0.0	-0.0	-0.0	-0.0	-4.0745697021484375	9.329200744628906	-773.8603515625	-0.0	-0.0	-0.0	-0.0	-0.0	-0.0	223082.65625	10643.849609375	-6210.13916015625
0.339	-0.0	-0.0	-0.0	-0.0	-0.0	-0.0	-4.319368362426758	9.38031005859375	-774.1715087890625	-0.0	-0.0	-0.0	-0.0	-0.0	-0.0	223444.296875	11070.658203125	-6119.625
0.3395	-0.0	-0.0	-0.0	-0.0	-0.0	-0.0	-4.7474517822265625	10.23788833618164	-773.1370239257812	-0.0	-0.0	-0.0	-0.0	-0.0	-0.0	223636.015625	11181.59765625	-5980.1298828125
0.34	-0.0	-0.0	-0.0	-0.0	-0.0	-0.0	-5.187057971954346	10.981637954711914	-770.997314453125	-0.0	-0.0	-0.0	-0.0	-0.0	-0.0	223158.421875	11714.0537109375	-6163.0263671875
0.3405	-0.0	-0.0	-0.0	-0.0	-0.0	-0.0	-5.912569999694824	12.130980491638184	-771.5087280273438	-0.0	-0.0	-0.0	-0.0	-0.0	-0.0	223459.28125	11954.2978515625	-6112.904296875
0.341	-0.0	-0.0	-0.0	-0.0	-0.0	-0.0	-6.25401496887207	12.897876739501951	-771.7418212890625	-0.0	-0.0	-0.0	-0.0	-0.0	-0.0	223308.09375	12174.7822265625	-6099.10888671875
0.3415	-0.0	-0.0	-0.0	-0.0	-0.0	-0.0	-6.911053657531738	13.483561515808104	-772.5507202148438	-0.0	-0.0	-0.0	-0.0	-0.0	-0.0	223494.046875	12570.275390625	-5934.1865234375
0.342	-0.0	-0.0	-0.0	-0.0	-0.0	-0.0	-7.789264678955078	13.707069396972656	-771.0174560546875	-0.0	-0.0	-0.0	-0.0	-0.0	-0.0	223518.234375	13032.169921875	-5988.4140625
0.3425	-0.0	-0.0	-0.0	-0.0	-0.0	-0.0	-7.955356597900391	14.395074844360352	-772.34912109375	-0.0	-0.0	-0.0	-0.0	-0.0	-0.0	223648.890625	13194.9580078125	-5911.59765625
0.343	-0.0	-0.0	-0.0	-0.0	-0.0	-0.0	-8.54931640625	14.868141174316406	-771.61376953125	-0.0	-0.0	-0.0	-0.0	-0.0	-0.0	223599.171875	13391.9052734375	-5963.83056640625
0.3435	-0.0	-0.0	-0.0	-0.0	-0.0	-0.0	-8.707435607910156	15.229930877685549	-770.89453125	-0.0	-0.0	-0.0	-0.0	-0.0	-0.0	223707.5625	13522.8720703125	-5852.15966796875
0.34400000000000003	-0.0	-0.0	-0.0	-0.0	-0.0	-0.0	-8.438532829284668	15.54461669921875	-770.8834228515625	-0.0	-0.0	-0.0	-0.0	-0.0	-0.0	223618.875	13966.9462890625	-5667.88427734375
0.34450000000000003	-0.0	-0.0	-0.0	-0.0	-0.0	-0.0	-8.8172025680542	15.624813079833984	-768.9850463867188	-0.0	-0.0	-0.0	-0.0	-0.0	-0.0	223408.96875	14104.501953125	-5455.34326171875
0.34500000000000003	-0.0	-0.0	-0.0	-0.0	-0.0	-0.0	-8.965229034423828	15.36806869506836	-768.7678833007812	-0.0	-0.0	-0.0	-0.0	-0.0	-0.0	222834.921875	14324.533203125	-5405.84326171875
0.34550000000000003	-0.0	-0.0	-0.0	-0.0	-0.0	-0.0	-9.229936599731444	14.86429214477539	-767.3848266601562	-0.0	-0.0	-0.0	-0.0	-0.0	-0.0	222797.34375	14592.0419921875	-5305.24169921875
0.34600000000000003	-0.0	-0.0	-0.0	-0.0	-0.0	-0.0	-9.419212341308594	14.29758071899414	-766.8618774414062	-0.0	-0.0	-0.0	-0.0	-0.0	-0.0	222589.328125	14689.310546875	-5197.8115234375
0.34650000000000003	-0.0	-0.0	-0.0	-0.0	-0.0	-0.0	-9.85074520111084	13.648375511169434	-766.243896484375	-0.0	-0.0	-0.0	-0.0	-0.0	-0.0	222158.3125	14737.9619140625	-5164.61669921875
0.34700000000000003	-0.0	-0.0	-0.0	-0.0	-0.0	-0.0	-9.75300407409668	13.372984886169434	-766.3572998046875	-0.0	-0.0	-0.0	-0.0	-0.0	-0.0	221978.578125	14980.345703125	-4951.248046875
0.34750000000000003	-0.0	-0.0	-0.0	-0.0	-0.0	-0.0	-9.466808319091797	13.109444618225098	-765.7295532226562	-0.0	-0.0	-0.0	-0.0	-0.0	-0.0	221762.296875	14986.51953125	-4830.826171875
0.34800000000000003	-0.0	-0.0	-0.0	-0.0	-0.0	-0.0	-9.403343200683594	12.816705703735352	-768.772216796875	-0.0	-0.0	-0.0	-0.0	-0.0	-0.0	221791.46875	14826.5888671875	-4552.16796875
0.34850000000000003	-0.0	-0.0	-0.0	-0.0	-0.0	-0.0	-9.69508934020996	13.15969181060791	-766.7083740234375	-0.0	-0.0	-0.0	-0.0	-0.0	-0.0	221588.515625	14956.27734375	-4587.4736328125
0.34900000000000003	-0.0	-0.0	-0.0	-0.0	-0.0	-0.0	-9.28745937347412	12.676496505737305	-765.1949462890625	-0.0	-0.0	-0.0	-0.0	-0.0	-0.0	221162.046875	15069.0400390625	-4524.72412109375
0.34950000000000003	-0.0	-0.0	-0.0	-0.0	-0.0	-0.0	-9.4267578125	11.972448348999023	-767.0574340820312	-0.0	-0.0	-0.0	-0.0	-0.0	-0.0	220802.6875	15176.6630859375	-4267.04736328125
0.35000000000000003	-0.0	-0.0	-0.0	-0.0	-0.0	-0.0	-9.393752098083496	11.407821655273438	-767.671142578125	-0.0	-0.0	-0.0	-0.0	-0.0	-0.0	220548.0625	14974.8486328125	-4181.60205078125
0.35050000000000003	-0.0	-0.0	-0.0	-0.0	-0.0	-0.0	-8.516331672668457	10.841486930847168	-766.0633544921875	-0.0	-0.0	-0.0	-0.0	-0.0	-0.0	220433.765625	15115.37890625	-3893.91650390625
0.35100000000000003	-0.0	-0.0	-0.0	-0.0	-0.0	-0.0	-8.541878700256348	10.547502517700195	-767.4903564453125	-0.0	-0.0	-0.0	-0.0	-0.0	-0.0	220062.109375	15202.5595703125	-3714.5224609375
0.35150000000000003	-0.0	-0.0	-0.0	-0.0	-0.0	-0.0	-8.795348167419434	9.995539665222168	-765.33447265625	-0.0	-0.0	-0.0	-0.0	-0.0	-0.0	219647.125	15078.5673828125	-3722.73291015625
0.352	-0.0	-0.0	-0.0	-0.0	-0.0	-0.0	-8.85732650756836	9.255521774291992	-767.0860595703125	-0.0	-0.0	-0.0	-0.0	-0.0	-0.0	219092.3125	15231.0400390625	-3513.501953125
0.3525	-0.0	-0.0	-0.0	-0.0	-0.0	-0.0	-8.377508163452148	8.944799423217773	-766.4971923828125	-0.0	-0.0	-0.0	-0.0	-0.0	-0.0	218909.71875	14890.2734375	-3462.439208984375
0.353	-0.0	-0.0	-0.0	-0.0	-0.0	-0.0	-7.744574069976807	8.308892250061035	-766.903076171875	-0.0	-0.0	-0.0	-0.0	-0.0	-0.0	218470.59375	14821.435546875	-3056.548095703125
0.3535	-0.0	-0.0	-0.0	-0.0	-0.0	-0.0	-6.871772766113281	7.474161148071289	-765.553955078125	-0.0	-0.0	-0.0	-0.0	-0.0	-0.0	218217.28125	14527.623046875	-2715.0361328125
0.354	-0.0	-0.0	-0.0	-0.0	-0.0	-0.0	-6.391523361206055	7.233722686767578	-763.2625732421875	-0.0	-0.0	-0.0	-0.0	-0.0	-0.0	217263.53125	14555.1669921875	-2463.3701171875
0.3545	-0.0	-0.0	-0.0	-0.0	-0.0	-0.0	-6.402158737182617	6.334970474243164	-761.6574096679688	-0.0	-0.0	-0.0	-0.0	-0.0	-0.0	216395.09375	14564.0341796875	-2491.099365234375
0.355	-0.0	-0.0	-0.0	-0.0	-0.0	-0.0	-6.528733253479004	5.030115127563477	-760.40234375	-0.0	-0.0	-0.0	-0.0	-0.0	-0.0	215291.5625	14729.7802734375	-2346.84375
0.3555	-0.0	-0.0	-0.0	-0.0	-0.0	-0.0	-6.5316481590271	4.198381423950195	-757.7117919921875	-0.0	-0.0	-0.0	-0.0	-0.0	-0.0	214724.28125	14854.263671875	-2396.145751953125
0.356	-0.0	-0.0	-0.0	-0.0	-0.0	-0.0	-6.669829368591309	3.019385576248169	-755.2474975585938	-0.0	-0.0	-0.0	-0.0	-0.0	-0.0	214178.21875	14997.845703125	-2546.7978515625
0.3565	-0.0	-0.0	-0.0	-0.0	-0.0	-0.0	-6.830763339996338	2.6364712715148926	-755.96435546875	-0.0	-0.0	-0.0	-0.0	-0.0	-0.0	213525.09375	15114.2783203125	-2402.58203125
0.357	-0.0	-0.0	-0.0	-0.0	-0.0	-0.0	-6.967659950256348	2.0413155555725098	-753.302734375	-0.0	-0.0	-0.0	-0.0	-0.0	-0.0	212722.125	15244.2509765625	-2461.1826171875
0.3575	-0.0	-0.0	-0.0	-0.0	-0.0	-0.0	-6.778000354766846	1.885668992996216	-752.437255859375	-0.0	-0.0	-0.0	-0.0	-0.0	-0.0	212278.828125	15235.8232421875	-2478.98388671875
0.358	-0.0	-0.0	-0.0	-0.0	-0.0	-0.0	-6.91556978225708	1.6819666624069214	-751.374267578125	-0.0	-0.0	-0.0	-0.0	-0.0	-0.0	211572.875	15211.3935546875	-2378.908935546875
0.3585	-0.0	-0.0	-0.0	-0.0	-0.0	-0.0	-6.347573757171631	0.942757248878479	-752.4555053710938	-0.0	-0.0	-0.0	-0.0	-0.0	-0.0	211626.796875	14875.69921875	-2352.584716796875
0.359	-0.0	-0.0	-0.0	-0.0	-0.0	-0.0	-5.762482643127441	0.3147355616092682	-753.32421875	-0.0	-0.0	-0.0	-0.0	-0.0	-0.0	211601.234375	14759.8564453125	-2197.28466796875
0.3595	-0.0	-0.0	-0.0	-0.0	-0.0	-0.0	-5.585038185119629	-0.4600119292736053	-754.4439086914062	-0.0	-0.0	-0.0	-0.0	-0.0	-0.0	212023.1875	14560.361328125	-2085.814697265625
0.36	-0.0	-0.0	-0.0	-0.0	-0.0	-0.0	-4.889992713928223	-1.5789384841918943	-754.8944702148438	-0.0	-0.0	-0.0	-0.0	-0.0	-0.0	212192.9375	14750.5	-2136.044921875
0.3605	-0.0	-0.0	-0.0	-0.0	-0.0	-0.0	-5.145225524902344	-1.3506128787994385	-755.476806640625	-0.0	-0.0	-0.0	-0.0	-0.0	-0.0	212036.453125	14751.1689453125	-2112.8232421875
